<?xml version="1.0" encoding="UTF-8" standalone="no"?>
<!-- Created with Inkscape (http://www.inkscape.org/) -->

<svg
   xmlns:dc="http://purl.org/dc/elements/1.1/"
   xmlns:cc="http://creativecommons.org/ns#"
   xmlns:rdf="http://www.w3.org/1999/02/22-rdf-syntax-ns#"
   xmlns:svg="http://www.w3.org/2000/svg"
   xmlns="http://www.w3.org/2000/svg"
   xmlns:sodipodi="http://sodipodi.sourceforge.net/DTD/sodipodi-0.dtd"
   xmlns:inkscape="http://www.inkscape.org/namespaces/inkscape"
   width="210mm"
   height="297mm"
   viewBox="0 0 744.09448819 1052.3622047"
   id="svg9532"
   version="1.1"
   inkscape:version="0.91 r13725"
   enable-background="new"
   sodipodi:docname="betrieb.svg">
  <defs
     id="defs9534">
    <inkscape:path-effect
       effect="powerstroke"
       id="path-effect10388"
       is_visible="true"
       offset_points="0,0.5"
       sort_points="true"
       interpolator_type="CubicBezierJohan"
       interpolator_beta="0.2"
       start_linecap_type="zerowidth"
       linejoin_type="round"
       miter_limit="4"
       end_linecap_type="zerowidth"
       cusp_linecap_type="round" />
    <inkscape:path-effect
       effect="powerstroke"
       id="path-effect10384"
       is_visible="true"
       offset_points="0,0.085855028"
       sort_points="true"
       interpolator_type="Linear"
       interpolator_beta="0.2"
       start_linecap_type="zerowidth"
       linejoin_type="round"
       miter_limit="4"
       end_linecap_type="zerowidth"
       cusp_linecap_type="round" />
    <inkscape:path-effect
       effect="powerstroke"
       id="path-effect10380"
       is_visible="true"
       offset_points="0,0.62905185"
       sort_points="true"
       interpolator_type="CubicBezierJohan"
       interpolator_beta="0.2"
       start_linecap_type="zerowidth"
       linejoin_type="round"
       miter_limit="4"
       end_linecap_type="zerowidth"
       cusp_linecap_type="round" />
    <inkscape:path-effect
       effect="powerstroke"
       id="path-effect10100"
       is_visible="true"
       offset_points="0,0.5"
       sort_points="true"
       interpolator_type="CubicBezierJohan"
       interpolator_beta="0.2"
       start_linecap_type="zerowidth"
       linejoin_type="round"
       miter_limit="4"
       end_linecap_type="zerowidth"
       cusp_linecap_type="round" />
    <inkscape:perspective
       sodipodi:type="inkscape:persp3d"
       inkscape:vp_x="0 : 526.1811 : 1"
       inkscape:vp_y="0 : 1000 : 0"
       inkscape:vp_z="744.09449 : 526.1811 : 1"
       inkscape:persp3d-origin="372.04724 : 350.7874 : 1"
       id="perspective10080" />
    <inkscape:path-effect
       effect="powerstroke"
       id="path-effect10388-1"
       is_visible="true"
       offset_points="0,0.75192008"
       sort_points="true"
       interpolator_type="Linear"
       interpolator_beta="0.2"
       start_linecap_type="zerowidth"
       linejoin_type="round"
       miter_limit="4"
       end_linecap_type="zerowidth"
       cusp_linecap_type="round" />
    <inkscape:path-effect
       effect="powerstroke"
       id="path-effect10388-1-4"
       is_visible="true"
       offset_points="0,0.75192008"
       sort_points="true"
       interpolator_type="Linear"
       interpolator_beta="0.2"
       start_linecap_type="zerowidth"
       linejoin_type="round"
       miter_limit="4"
       end_linecap_type="zerowidth"
       cusp_linecap_type="round" />
  </defs>
  <sodipodi:namedview
     id="base"
     pagecolor="#ffffff"
     bordercolor="#666666"
     borderopacity="1.0"
     inkscape:pageopacity="0.0"
     inkscape:pageshadow="2"
     inkscape:zoom="0.3675"
     inkscape:cx="271.33811"
     inkscape:cy="471.50517"
     inkscape:document-units="px"
     inkscape:current-layer="layer1"
     showgrid="false"
     showguides="true"
     inkscape:window-width="1051"
     inkscape:window-height="790"
     inkscape:window-x="0"
     inkscape:window-y="1"
     inkscape:window-maximized="0" />
  <metadata
     id="metadata9537">
    <rdf:RDF>
      <cc:Work
         rdf:about="">
        <dc:format>image/svg+xml</dc:format>
        <dc:type
           rdf:resource="http://purl.org/dc/dcmitype/StillImage" />
        <dc:title />
      </cc:Work>
    </rdf:RDF>
  </metadata>
  <g
     inkscape:label="Ebene 1"
     inkscape:groupmode="layer"
     id="layer1"
     style="">
    <g
       id="g4147"
       transform="translate(2.444047,87.422738)">
      <path
         sodipodi:nodetypes="cccccc"
         inkscape:connector-curvature="0"
         id="rect10438"
         d="m 146.67688,421.09651 -130.453951,166.57083 0.907228,0 127.863153,0.84127 1.67636,-166.67752 z"
         style="opacity:1;fill:none;fill-opacity:0.59215686;stroke:#000000;stroke-width:30;stroke-linecap:butt;stroke-linejoin:round;stroke-miterlimit:4;stroke-dasharray:none;stroke-opacity:1" />
      <rect
         y="595.98322"
         x="9.0472584"
         height="214.61865"
         width="721.11188"
         id="rect10463"
         style="opacity:1;fill:none;fill-opacity:0.59215686;stroke:#000000;stroke-width:22.28700829;stroke-linecap:butt;stroke-linejoin:round;stroke-miterlimit:4;stroke-dasharray:none;stroke-opacity:1" />
      <path
         sodipodi:nodetypes="cccccc"
         inkscape:connector-curvature="0"
         id="rect10438-4"
         d="m 301.66503,416.22754 -130.45394,166.57083 0.90722,0 127.86315,0.84127 1.67636,-166.67752 z"
         style="opacity:1;fill:none;fill-opacity:0.59215686;stroke:#000000;stroke-width:30;stroke-linecap:butt;stroke-linejoin:round;stroke-miterlimit:4;stroke-dasharray:none;stroke-opacity:1" />
      <path
         sodipodi:nodetypes="cccccc"
         inkscape:connector-curvature="0"
         id="rect10438-7"
         d="m 451.92522,407.3887 -130.45394,166.57083 0.90722,0 127.86315,0.84127 1.67636,-166.67752 z"
         style="opacity:1;fill:none;fill-opacity:0.59215686;stroke:#000000;stroke-width:30;stroke-linecap:butt;stroke-linejoin:round;stroke-miterlimit:4;stroke-dasharray:none;stroke-opacity:1" />
      <path
         sodipodi:nodetypes="ccccc"
         inkscape:connector-curvature="0"
         id="rect10488"
         d="m 559.57408,185.85323 108.88207,0 29.93197,405.4944 -190.51472,-2.72109 z"
         style="opacity:1;fill:none;fill-opacity:0.59215686;stroke:#000000;stroke-width:24.97423935;stroke-linecap:butt;stroke-linejoin:round;stroke-miterlimit:4;stroke-dasharray:none;stroke-opacity:1" />
      <path
         inkscape:connector-curvature="0"
         d="m 605.70851,164.53181 c 0.067,-4.96787 -0.2274,-8.55937 1.07736,-13.2845 2.38817,-6.35322 5.67378,-11.77317 8.84829,-17.26386 3.8308,-6.0287 7.87512,-11.7071 12.49265,-16.3776 7.17638,-6.84577 5.05902,-4.89492 19.09638,-16.64383 0.74707,-0.62528 1.58654,-0.975297 2.34886,-1.558617 2.18445,-1.6715 3.83066,-3.22096 6.17629,-4.48686 3.62603,-2.415993 7.46026,-4.049844 11.08078,-6.469366 3.50996,-1.912998 -0.0961,0.15943 3.41803,-2.199985 0.53241,-0.357465 2.12987,-1.411204 1.6264,-0.970891 -4.50646,3.941105 -18.20989,15.290639 -13.6504,11.486452 16.91176,-14.110202 10.26412,-11.040309 17.59549,-14.245756 11.7203,-8.948691 -18.52486,16.342336 -10.57305,9.028936 41.18126,-35.527125 1.24043,-0.993173 0.93431,-0.7341 -0.87299,0.738819 0.6896,-1.204281 0.97645,-1.296955 0.30497,-1.502294 0.27182,-3.09573 0.44545,-4.640803 0.082,-1.346771 -0.0282,-2.70249 -0.11434,-4.044216 -0.33619,-1.770312 1.15387,0.329444 -0.835,0.282578 -1.38409,0.16004 -1.58418,0.1886 -2.46958,-1.563144 0,0 15.13165,-13.633206 15.13165,-13.633206 l 0,0 c 0.46797,0.331784 -0.0987,0.02128 0.158,-0.216376 0.35775,-0.331297 1.195,0.214567 1.6062,0.158711 1.00913,0.257949 2.1885,1.064795 2.13834,2.857553 0.0488,1.48911 0.15659,2.971762 0.19628,4.46179 -0.0413,1.674065 -0.36293,3.319409 -0.27108,5.03857 0.059,1.018101 -0.0318,1.781666 -0.69075,2.390163 -5.11598,4.724087 -11.49335,7.213564 -15.42022,13.998145 -3.68413,6.365177 9.76824,-8.447662 14.65237,-12.671491 -1.15112,1.322789 0.27571,-0.23166 -1.22593,1.076035 -5.99354,5.219479 -11.79881,11.810086 -18.4164,15.475906 -0.40534,0.25791 -1.59448,1.10975 -1.216,0.77372 4.52403,-4.01669 18.33795,-15.436583 13.66197,-11.823965 -7.26885,5.615852 -13.63436,12.873202 -21.28352,16.975132 -3.672,2.11059 -7.37757,4.0948 -11.01052,6.35271 -2.07571,1.38901 -4.03907,2.99103 -6.0601,4.5438 -0.74858,0.57515 -2.97773,2.34306 -2.25401,1.70152 19.16588,-16.98998 15.3638,-13.47778 10.19107,-8.62053 -4.75456,4.27438 -8.73136,9.89868 -12.65113,15.71536 -5.93006,9.69382 2.11749,-3.64985 -3.44311,6.18039 -0.53651,0.94847 -1.17406,1.76269 -1.71901,2.70048 -1.38258,2.37924 -2.33863,5.109 -3.6307,7.58053 -0.36904,0.96195 -1.14482,2.77123 -1.29652,3.93849 -0.34136,2.6264 0.21947,5.51254 0.0614,8.16272 0,0 -15.68253,11.86636 -15.68253,11.86636 z"
         id="path10490"
         style="opacity:1;fill:none;fill-opacity:0.59215686;stroke:#000000;stroke-width:19.64412498;stroke-linecap:butt;stroke-linejoin:round;stroke-miterlimit:4;stroke-dasharray:none;stroke-opacity:1" />
    </g>
  </g>
</svg>
