<?xml version="1.0" encoding="UTF-8" standalone="no"?>
<!-- Created with Inkscape (http://www.inkscape.org/) -->

<svg
   xmlns:dc="http://purl.org/dc/elements/1.1/"
   xmlns:cc="http://creativecommons.org/ns#"
   xmlns:rdf="http://www.w3.org/1999/02/22-rdf-syntax-ns#"
   xmlns:svg="http://www.w3.org/2000/svg"
   xmlns="http://www.w3.org/2000/svg"
   xmlns:sodipodi="http://sodipodi.sourceforge.net/DTD/sodipodi-0.dtd"
   xmlns:inkscape="http://www.inkscape.org/namespaces/inkscape"
   id="svg4187"
   version="1.1"
   inkscape:version="0.91 r13725"
   width="600"
   height="600"
   viewBox="0 0 600 600"
   sodipodi:docname="logo_shop1.jpg.svg">
  <metadata
     id="metadata4193">
    <rdf:RDF>
      <cc:Work
         rdf:about="">
        <dc:format>image/svg+xml</dc:format>
        <dc:type
           rdf:resource="http://purl.org/dc/dcmitype/StillImage" />
        <dc:title></dc:title>
      </cc:Work>
    </rdf:RDF>
  </metadata>
  <defs
     id="defs4191" />
  <sodipodi:namedview
     pagecolor="#ffffff"
     bordercolor="#666666"
     borderopacity="1"
     objecttolerance="10"
     gridtolerance="10"
     guidetolerance="10"
     inkscape:pageopacity="0"
     inkscape:pageshadow="2"
     inkscape:window-width="1316"
     inkscape:window-height="785"
     id="namedview4189"
     showgrid="false"
     inkscape:zoom="0.32880465"
     inkscape:cx="-29.327064"
     inkscape:cy="421.65278"
     inkscape:window-x="0"
     inkscape:window-y="0"
     inkscape:window-maximized="0"
     inkscape:current-layer="svg4187" />
  <path
     style="fill:#000000"
     d="m 162.47169,489.66431 c -1.98082,-1.98082 -2,-3.33333 -2,-141.04545 l 0,-139.04546 2.45455,-2.45454 c 2.22041,-2.22042 3.26402,-2.45455 10.94098,-2.45455 4.66754,0 8.70288,-0.35021 8.96741,-0.77824 0.26454,-0.42803 1.00071,-4.59053 1.63594,-9.25 6.58433,-48.29702 35.8871,-85.36679 78.50112,-99.308639 43.73348,-14.308099 91.94247,-2.965324 122.28268,28.771089 19.38888,20.28112 29.64132,43.31849 33.74068,75.81579 l 0.59919,4.75 11.48418,0 c 10.85975,0 11.61764,0.13346 13.93872,2.45455 l 2.45455,2.45454 0,138.59091 0,138.59091 -2.45455,2.45454 -2.45454,2.45455 -139.04546,0 c -137.71212,0 -139.06463,-0.0192 -141.04545,-2 z m 263.4372,-18.34629 c 2.08597,-2.08597 2.42138,-3.61156 3.02305,-13.75 0.37221,-6.27204 0.53343,-60.22871 0.35825,-119.90371 -0.24508,-83.48958 -0.60177,-108.9944 -1.54739,-110.64482 -1.46435,-2.55577 -5.45721,-4.00954 -10.27111,-3.73964 -1.925,0.10793 -55.38295,0.23859 -118.79545,0.29035 l -115.29546,0.0941 -2.45454,2.45455 -2.45455,2.45454 0,118.9984 c 0,85.32605 0.31525,119.69029 1.11408,121.44355 0.61275,1.34483 2.07525,2.91054 3.25,3.47937 1.43205,0.69341 41.44867,1.05653 121.43137,1.10191 l 119.29546,0.0677 2.34629,-2.34629 z M 405.99227,203.63101 c 1.08624,-1.75757 -2.48984,-21.50643 -5.46985,-30.20718 C 396.2737,161.01881 393.87223,155.98911 387.9443,147.08 362.26792,108.49078 313.44731,92.319728 267.53396,107.19599 c -30.35607,9.83559 -52.92213,31.78101 -64.05923,62.29738 -3.2173,8.81561 -7.00304,25.88623 -7.00304,31.57802 l 0,3.59292 104.44098,0 c 70.79247,0 104.64673,-0.33291 105.0796,-1.0333 z"
     id="path4739"
     inkscape:connector-curvature="0" />
</svg>
